<svg width="518" height="528" viewBox="0 0 518 528" fill="none" xmlns="http://www.w3.org/2000/svg">
<path d="M287.605 13.2727V54H280.168L262.449 28.3665H262.151V54H253.54V13.2727H261.097L278.676 38.8864H279.034V13.2727H287.605Z" fill="#D33205"/>
<path d="M12.7074 286L1.05398 245.273H10.4602L17.2017 273.571H17.5398L24.9773 245.273H33.0312L40.4489 273.631H40.8068L47.5483 245.273H56.9545L45.3011 286H36.9091L29.1534 259.372H28.8352L21.0994 286H12.7074Z" fill="#D33205"/>
<path d="M488.54 285V244.273H515.983V251.372H497.151V261.077H514.571V268.176H497.151V277.901H516.062V285H488.54Z" fill="#D33205"/>
<path d="M279.634 497.986C279.474 496.382 278.792 495.135 277.585 494.247C276.379 493.359 274.741 492.915 272.673 492.915C271.268 492.915 270.081 493.114 269.114 493.511C268.146 493.896 267.403 494.433 266.886 495.122C266.383 495.812 266.131 496.594 266.131 497.469C266.104 498.198 266.257 498.834 266.588 499.378C266.933 499.921 267.403 500.392 268 500.79C268.597 501.174 269.286 501.512 270.068 501.804C270.85 502.082 271.686 502.321 272.574 502.52L276.233 503.395C278.009 503.793 279.64 504.323 281.125 504.986C282.61 505.649 283.896 506.464 284.983 507.432C286.07 508.4 286.912 509.54 287.509 510.852C288.118 512.165 288.43 513.67 288.443 515.366C288.43 517.859 287.794 520.02 286.534 521.849C285.288 523.666 283.485 525.078 281.125 526.085C278.778 527.08 275.948 527.577 272.634 527.577C269.346 527.577 266.482 527.073 264.043 526.065C261.616 525.058 259.721 523.566 258.355 521.591C257.003 519.602 256.294 517.143 256.227 514.213H264.56C264.652 515.579 265.044 516.719 265.733 517.634C266.436 518.535 267.37 519.218 268.537 519.682C269.717 520.133 271.049 520.358 272.534 520.358C273.992 520.358 275.259 520.146 276.332 519.722C277.42 519.297 278.261 518.707 278.858 517.952C279.455 517.196 279.753 516.328 279.753 515.347C279.753 514.432 279.481 513.663 278.938 513.04C278.407 512.417 277.625 511.886 276.591 511.449C275.57 511.011 274.317 510.614 272.832 510.256L268.398 509.142C264.964 508.307 262.253 507.001 260.264 505.224C258.276 503.448 257.288 501.055 257.301 498.045C257.288 495.58 257.944 493.425 259.27 491.582C260.609 489.74 262.445 488.301 264.778 487.267C267.112 486.233 269.763 485.716 272.733 485.716C275.756 485.716 278.394 486.233 280.648 487.267C282.915 488.301 284.678 489.74 285.938 491.582C287.197 493.425 287.847 495.56 287.886 497.986H279.634Z" fill="#D33205"/>
<circle cx="271" cy="267" r="194" stroke="#D33205" stroke-width="8"/>
</svg>
