<svg width="288" height="288" viewBox="0 0 288 288" fill="none" xmlns="http://www.w3.org/2000/svg">
<circle cx="144" cy="144" r="124" stroke="#C12020" stroke-width="8"/>
<path fill-rule="evenodd" clip-rule="evenodd" d="M140 0H148V40.2943C146.695 40.1004 145.359 40 144 40C142.641 40 141.305 40.1004 140 40.2943V0ZM144 94C145.359 94 146.695 93.8996 148 93.7057V194.294C146.695 194.1 145.359 194 144 194C142.641 194 141.305 194.1 140 194.294V93.7057C141.305 93.8996 142.641 94 144 94ZM140 247.706V288H148V247.706C146.695 247.9 145.359 248 144 248C142.641 248 141.305 247.9 140 247.706Z" fill="#939393"/>
<path fill-rule="evenodd" clip-rule="evenodd" d="M93.7058 148C93.8997 146.695 94 145.359 94 144C94 142.641 93.8997 141.305 93.7058 140H194.294C194.1 141.305 194 142.641 194 144C194 145.359 194.1 146.695 194.294 148H93.7058ZM40.2942 148H0V140H40.2942C40.1003 141.305 40 142.641 40 144C40 145.359 40.1003 146.695 40.2942 148ZM248 144C248 145.359 247.9 146.695 247.706 148H288V140H247.706C247.9 141.305 248 142.641 248 144Z" fill="#939393"/>
<path d="M153.489 56.7273V80H149.239L139.114 65.3523H138.943V80H134.023V56.7273H138.341L148.386 71.3636H148.591V56.7273H153.489Z" fill="#C12020"/>
<path d="M212.023 157V133.727H227.705V137.784H216.943V143.33H226.898V147.386H216.943V152.943H227.75V157H212.023Z" fill="#939393"/>
<path d="M147.648 217.42C147.557 216.504 147.167 215.792 146.477 215.284C145.788 214.777 144.852 214.523 143.67 214.523C142.867 214.523 142.189 214.636 141.636 214.864C141.083 215.083 140.659 215.39 140.364 215.784C140.076 216.178 139.932 216.625 139.932 217.125C139.917 217.542 140.004 217.905 140.193 218.216C140.39 218.527 140.659 218.795 141 219.023C141.341 219.242 141.735 219.436 142.182 219.602C142.629 219.761 143.106 219.898 143.614 220.011L145.705 220.511C146.72 220.739 147.652 221.042 148.5 221.42C149.348 221.799 150.083 222.265 150.705 222.818C151.326 223.371 151.807 224.023 152.148 224.773C152.496 225.523 152.674 226.383 152.682 227.352C152.674 228.777 152.311 230.011 151.591 231.057C150.879 232.095 149.848 232.902 148.5 233.477C147.159 234.045 145.542 234.33 143.648 234.33C141.769 234.33 140.133 234.042 138.739 233.466C137.352 232.89 136.269 232.038 135.489 230.909C134.716 229.773 134.311 228.367 134.273 226.693H139.034C139.087 227.473 139.311 228.125 139.705 228.648C140.106 229.163 140.64 229.553 141.307 229.818C141.981 230.076 142.742 230.205 143.591 230.205C144.424 230.205 145.148 230.083 145.761 229.841C146.383 229.598 146.864 229.261 147.205 228.83C147.545 228.398 147.716 227.902 147.716 227.341C147.716 226.818 147.561 226.379 147.25 226.023C146.947 225.667 146.5 225.364 145.909 225.114C145.326 224.864 144.61 224.636 143.761 224.432L141.227 223.795C139.265 223.318 137.716 222.572 136.58 221.557C135.443 220.542 134.879 219.174 134.886 217.455C134.879 216.045 135.254 214.814 136.011 213.761C136.777 212.708 137.826 211.886 139.159 211.295C140.492 210.705 142.008 210.409 143.705 210.409C145.432 210.409 146.939 210.705 148.227 211.295C149.523 211.886 150.53 212.708 151.25 213.761C151.97 214.814 152.341 216.034 152.364 217.42H147.648Z" fill="#939393"/>
<path d="M57.2614 157L50.6023 133.727H55.9773L59.8295 149.898H60.0227L64.2727 133.727H68.875L73.1136 149.932H73.3182L77.1705 133.727H82.5455L75.8864 157H71.0909L66.6591 141.784H66.4773L62.0568 157H57.2614Z" fill="#939393"/>
<rect x="132" width="24" height="42" fill="#C12020"/>
</svg>
